<?xml version="1.0" encoding="iso-8859-1"?>
<!-- Uploaded to: SVG Repo, www.svgrepo.com, Generator: SVG Repo Mixer Tools -->
<svg version="1.1" id="Layer_1" xmlns="http://www.w3.org/2000/svg" xmlns:xlink="http://www.w3.org/1999/xlink" 
	 viewBox="0 0 511.999 511.999" xml:space="preserve">
<path d="M409.383,287.049c-0.762,0-1.535-0.082-2.285-0.234c-0.75-0.152-1.488-0.375-2.203-0.668
	c-0.703-0.293-1.383-0.656-2.015-1.066c-0.644-0.432-1.242-0.926-1.781-1.465s-1.031-1.137-1.465-1.781
	c-0.422-0.633-0.773-1.312-1.066-2.015c-0.293-0.715-0.527-1.453-0.668-2.203c-0.152-0.751-0.234-1.524-0.234-2.285
	c0-0.762,0.082-1.536,0.234-2.285c0.141-0.75,0.375-1.489,0.668-2.203c0.293-0.704,0.644-1.383,1.066-2.015
	c0.434-0.646,0.926-1.243,1.465-1.782s1.137-1.031,1.781-1.465c0.633-0.41,1.312-0.773,2.015-1.066
	c0.715-0.293,1.453-0.514,2.203-0.667c1.512-0.306,3.07-0.306,4.57,0c0.75,0.152,1.488,0.374,2.191,0.667
	c0.715,0.293,1.394,0.657,2.027,1.066c0.644,0.434,1.242,0.926,1.781,1.465c0.539,0.539,1.031,1.137,1.453,1.782
	c0.422,0.633,0.785,1.311,1.078,2.015c0.293,0.714,0.516,1.453,0.668,2.203c0.152,0.75,0.234,1.523,0.234,2.285
	c0,0.76-0.082,1.535-0.234,2.285c-0.152,0.75-0.375,1.488-0.668,2.203c-0.293,0.703-0.656,1.383-1.078,2.015
	c-0.422,0.644-0.914,1.242-1.453,1.781C415.487,285.795,412.465,287.049,409.383,287.049z"/>
<rect x="185.863" y="11.717" style="fill:#FFC674;" width="111.591" height="84.97"/>
<path style="fill:#E0E381;" d="M289.296,232.874V96.684h-95.274v136.19c-61.833,20.07-106.541,78.142-106.541,146.665
	c0,48.912,22.781,92.497,58.305,120.743H337.53c35.524-28.246,58.305-71.831,58.305-120.743
	C395.837,311.016,351.129,252.945,289.296,232.874z"/>
<rect x="161.703" y="68.332" style="fill:#A5BA6B;" width="159.923" height="56.709"/>
<path d="M356.586,152.942c-22.465,0-41.916,9.46-55.573,24.567v-40.752h20.609c6.471,0,11.717-5.247,11.717-11.717V68.328
	c0-6.47-5.246-11.717-11.717-11.717H309.17V11.717C309.17,5.247,303.925,0,297.453,0H185.867c-6.471,0-11.717,5.247-11.717,11.717
	v44.894h-12.451c-6.471,0-11.717,5.247-11.717,11.717v56.711c0,6.47,5.246,11.717,11.717,11.717h20.608v87.833
	c-64.072,24.474-106.541,85.697-106.541,154.95c0,50.864,22.864,98.216,62.731,129.915c2.074,1.649,4.643,2.546,7.293,2.546h191.743
	c2.648,0,5.219-0.897,7.293-2.546c39.865-31.699,62.731-79.05,62.731-129.915c0-69.253-42.469-130.476-106.541-154.95v-0.477
	c4.1-26.988,27.458-47.735,55.573-47.735c30.996,0,56.213,25.216,56.213,56.213c0,2.382-0.15,4.779-0.446,7.123
	c-0.811,6.42,3.736,12.282,10.156,13.092c0.499,0.063,0.994,0.094,1.483,0.094c5.816,0,10.863-4.328,11.61-10.25
	c0.418-3.315,0.63-6.699,0.63-10.059C436.232,188.671,400.503,152.942,356.586,152.942z M197.583,23.434h88.153v33.177h-88.153
	V23.434z M173.415,80.045h136.49v33.277h-136.49V80.045z M384.12,379.539c0,42.339-18.452,81.847-50.768,109.027H149.967
	c-32.317-27.181-50.769-66.689-50.769-109.027c0-61.947,39.561-116.409,98.441-135.52c4.83-1.568,8.1-6.068,8.1-11.145v-96.118
	h71.84v96.118c0,5.077,3.27,9.577,8.1,11.145C344.56,263.13,384.12,317.592,384.12,379.539z"/>
<rect x="163.612" y="319.471" style="fill:#FFC674;" width="156.091" height="111.368"/>
<path d="M319.703,307.756H163.617c-6.471,0-11.717,5.247-11.717,11.717v111.373c0,6.47,5.246,11.717,11.717,11.717h156.087
	c6.471,0,11.717-5.247,11.717-11.717V319.473C331.419,313.003,326.174,307.756,319.703,307.756z M307.986,419.129H175.334v-32.252
	h72.768c6.471,0,11.717-5.247,11.717-11.717s-5.246-11.717-11.717-11.717h-72.768v-32.253h132.653v87.938H307.986z"/>
<path d="M283.65,386.876c-0.773,0-1.535-0.082-2.297-0.234c-0.75-0.141-1.488-0.375-2.191-0.668
	c-0.703-0.293-1.383-0.656-2.027-1.078c-0.633-0.422-1.242-0.914-1.781-1.453c-0.539-0.539-1.019-1.137-1.453-1.781
	c-0.422-0.633-0.785-1.312-1.078-2.016c-0.293-0.714-0.516-1.452-0.668-2.19c-0.152-0.762-0.223-1.536-0.223-2.297
	c0-0.762,0.07-1.536,0.223-2.285c0.152-0.751,0.375-1.489,0.668-2.191c0.293-0.715,0.656-1.394,1.078-2.027
	c0.434-0.644,0.914-1.242,1.453-1.781c2.73-2.718,6.772-3.972,10.58-3.199c0.75,0.152,1.488,0.375,2.191,0.668
	c0.703,0.293,1.394,0.656,2.027,1.078c0.633,0.422,1.242,0.914,1.781,1.453s1.031,1.137,1.453,1.781
	c0.422,0.633,0.785,1.312,1.078,2.027c0.293,0.703,0.516,1.44,0.668,2.191c0.152,0.75,0.234,1.523,0.234,2.285
	c0,0.76-0.082,1.535-0.234,2.297c-0.152,0.738-0.375,1.476-0.668,2.19c-0.293,0.704-0.656,1.384-1.078,2.016
	c-0.422,0.644-0.914,1.242-1.453,1.781c-0.539,0.539-1.148,1.031-1.781,1.453c-0.633,0.422-1.324,0.785-2.027,1.078
	s-1.441,0.527-2.191,0.668C285.185,386.794,284.412,386.876,283.65,386.876z"/>
</svg>